# xmcd CD database file
# Copyright (C) 1993-1998 Ti Kan
#
# Track frame offsets:
#	182
#	11500
#	23195
#	33657
#	44587
#	61720
#	74270
#	85825
#	95895
#	111290
#	121482
#	138555
#	154332
#	165987
#	194882
#	205995
#	219287
#	232117
#	245400
#	257662
#	268562
#
# Disc length: 3606 seconds
#
# Revision: 1
# Processed by: cddbd v1.4b41PL1 Copyright (c) Steve Scherf et al.
# Submitted via: CDValet v3.31 - Copyright (c) 1997 Greg Leichner
#
DISCID=370e1415
DTITLE=Ike and Tina Turner - Rock Me Baby
DYEAR=1900
DGENRE=
TTITLE0=Nothing You Can Do Boy
TTITLE1=Cussin' Cryin' And Carryn' On
TTITLE2=Make 'Em Wait
TTITLE3=You Got What You Wanted
TTITLE4=I Smell Trouble
TTITLE5=Rock Me Baby
TTITLE6=So Blue Over You
TTITLE7=Beauty Is Just Skin Deep
TTITLE8=Funky Mule (Inst)
TTITLE9=I'm Fed Up
TTITLE10=I've Been Lovin Too Long
TTITLE11=I Am A Motherless Child
TTITLE12=Bold Soul Sister
TTITLE13=The Hunter
TTITLE14=I Know
TTITLE15=Early In The Morning
TTITLE16=You're Still My Baby
TTITLE17=You Got Me Running
TTITLE18=Reconsider Baby
TTITLE19=Honest I Do
TTITLE20=Let The Good Times Roll
EXTD=
EXTT0=
EXTT1=
EXTT2=
EXTT3=
EXTT4=
EXTT5=
EXTT6=
EXTT7=
EXTT8=
EXTT9=
EXTT10=
EXTT11=
EXTT12=
EXTT13=
EXTT14=
EXTT15=
EXTT16=
EXTT17=
EXTT18=
EXTT19=
EXTT20=
PLAYORDER=
